# xmcd
#
# Track frame offsets:
#	150
#	11919
#	21520
#	31847
#	44174
#	56258
#	68376
#	78890
#	90864
#	102183
#	113063
#	124626
#	136305
#	149365
#	163821
#	184945
#	197809
#	211373
#	220756
#	231448
#
# Disc length: 3223 seconds
#
# Revision: 1
# Processed by: cddbd v1.5.2PL0 Copyright (c) Steve Scherf et al.
# Submitted via: audiograbber 1.83.01
#
DISCID=160c9514
DTITLE=Julie London - Best Of 1961-1962
DYEAR=2016
DGENRE=Jazz
TTITLE0=What's Your Story Morning Glory
TTITLE1=Get On the Right Track
TTITLE2=I Must Have That Man
TTITLE3=Everyday (I Have the Blues)
TTITLE4=Send for Me
TTITLE5=My Heart Belongs To Daddy
TTITLE6=Do It Again
TTITLE7=Love For Sale
TTITLE8=Always True to You (In My Fashion)
TTITLE9=There'll Be Some Changes Made
TTITLE10=Sophisticated Lady
TTITLE11=Blame It On My Youth
TTITLE12=Bewitched, Bothered And Bewildered
TTITLE13=Remind Me
TTITLE14=When The World Was Young
TTITLE15=Love Letters
TTITLE16=The Second Time Around
TTITLE17=What A Difference A Day Made
TTITLE18=Never On Sunday
TTITLE19=Broken Hearted Melody
EXTD=YEAR: 2016
EXTT0=
EXTT1=
EXTT2=
EXTT3=
EXTT4=
EXTT5=
EXTT6=
EXTT7=
EXTT8=
EXTT9=
EXTT10=
EXTT11=
EXTT12=
EXTT13=
EXTT14=
EXTT15=
EXTT16=
EXTT17=
EXTT18=
EXTT19=
PLAYORDER=
